# File exported by Houdini 19.0.455 (www.sidefx.com)
# 20 points
# 76 vertices
# 20 primitives
# Bounds: [-0.117139801, -0.111406274, -0.01425] to [0.117139801, 0.111406274, 0.01425]
g 
v -0.0361984484 0.0380610749 0.01425
v -0.117139801 0.0262992755 0.01425
v -0.0585700497 -0.0307919234 0.01425
v -2.99999982e-07 -0.0733454227 0.01425
v -0.0723965988 -0.111406274 0.01425
v -2.99999982e-07 0.111406274 0.01425
v 0.0723961517 -0.111406274 0.01425
v 0.0361978523 0.0380610749 0.01425
v 0.0585694499 -0.0307919234 0.01425
v 0.117139801 0.0262992755 0.01425
v -0.0585700497 -0.0307919234 -0.01425
v -0.117139801 0.0262992755 -0.01425
v -0.0361984484 0.0380610749 -0.01425
v -2.99999982e-07 -0.0733454227 -0.01425
v -0.0723965988 -0.111406274 -0.01425
v -2.99999982e-07 0.111406274 -0.01425
v 0.0361978523 0.0380610749 -0.01425
v 0.0723961517 -0.111406274 -0.01425
v 0.0585694499 -0.0307919234 -0.01425
v 0.117139801 0.0262992755 -0.01425
vt 0 0 0
vn 0 -0 0.99999994
vn 0 -0 0.99999994
vn 0 -0 0.99999994
vn 0 -0 0.99999994
vn 0 -0 0.99999994
vn 0 -0 0.99999994
vn 0 -0 0.99999994
vn 0 -0 0.99999994
vn 0 -0 0.99999994
vn 0 -0 0.99999994
vn 0 -0 0.99999994
vn 0 -0 0.99999994
vn 0 -0 0.99999994
vn 0 -0 0.99999994
vn 0 -0 0.99999994
vn 0 -0 0.99999994
vn 0 -0 0.99999994
vn 0 -0 0.99999994
vn 0 0 -0.99999994
vn 0 0 -0.99999994
vn 0 0 -0.99999994
vn 0 0 -0.99999994
vn 0 0 -0.99999994
vn 0 0 -0.99999994
vn 0 0 -0.99999994
vn 0 0 -0.99999994
vn 0 0 -0.99999994
vn 0 0 -0.99999994
vn 0 0 -0.99999994
vn 0 0 -0.99999994
vn 0 0 -0.99999994
vn 0 0 -0.99999994
vn 0 0 -0.99999994
vn 0 0 -0.99999994
vn 0 0 -0.99999994
vn 0 0 -0.99999994
vn 0.985599935 0.168999985 0
vn 0.985599935 0.168999985 0
vn 0.985599935 0.168999985 0
vn 0.985599935 0.168999985 0
vn -0.465299994 -0.885100007 0
vn -0.465299994 -0.885100007 0
vn -0.465299994 -0.885100007 0
vn -0.465299994 -0.885100007 0
vn 0.465299994 -0.885100007 0
vn 0.465299994 -0.885100007 0
vn 0.465299994 -0.885100007 0
vn 0.465299994 -0.885100007 0
vn -0.985599935 0.168999985 0
vn -0.985599935 0.168999985 0
vn -0.985599935 0.168999985 0
vn -0.985599935 0.168999985 0
vn -0.697999954 -0.716099918 0
vn -0.697999954 -0.716099918 0
vn -0.697999954 -0.716099918 0
vn -0.697999954 -0.716099918 0
vn -0.14380002 0.989600062 0
vn -0.14380002 0.989600062 0
vn -0.14380002 0.989600062 0
vn -0.14380002 0.989600062 0
vn -0.896700025 0.442599982 0
vn -0.896700025 0.442599982 0
vn -0.896700025 0.442599982 0
vn -0.896700025 0.442599982 0
vn 0.896700025 0.442599982 0
vn 0.896700025 0.442599982 0
vn 0.896700025 0.442599982 0
vn 0.896700025 0.442599982 0
vn 0.14380002 0.989600062 0
vn 0.14380002 0.989600062 0
vn 0.14380002 0.989600062 0
vn 0.14380002 0.989600062 0
vn 0.697999954 -0.716099918 0
vn 0.697999954 -0.716099918 0
vn 0.697999954 -0.716099918 0
vn 0.697999954 -0.716099918 0
g Group_001
usemtl /mat/wire_134110008
f 1/1/1 2/1/2 3/1/3 4/1/4
f 4/1/5 3/1/6 5/1/7
f 6/1/8 1/1/9 4/1/10 7/1/11
f 8/1/12 6/1/13 7/1/14 9/1/15
f 10/1/16 8/1/17 9/1/18
f 11/1/19 12/1/20 13/1/21 14/1/22
f 11/1/23 14/1/24 15/1/25
f 14/1/26 13/1/27 16/1/28 17/1/29
f 18/1/30 14/1/31 17/1/32 19/1/33
f 20/1/34 19/1/35 17/1/36
f 7/1/37 18/1/38 19/1/39 9/1/40
f 14/1/41 18/1/42 7/1/43 4/1/44
f 15/1/45 14/1/46 4/1/47 5/1/48
f 15/1/49 5/1/50 3/1/51 11/1/52
f 12/1/53 11/1/54 3/1/55 2/1/56
f 13/1/57 12/1/58 2/1/59 1/1/60
f 13/1/61 1/1/62 6/1/63 16/1/64
f 8/1/65 17/1/66 16/1/67 6/1/68
f 20/1/69 17/1/70 8/1/71 10/1/72
f 9/1/73 19/1/74 20/1/75 10/1/76
